<svg width="24" height="24" viewBox="0 0 24 24" fill="none" xmlns="http://www.w3.org/2000/svg">
<g clip-path="url(#clip0_10750_5679)">
<g clip-path="url(#clip1_10750_5679)">
<mask id="mask0_10750_5679" style="mask-type:luminance" maskUnits="userSpaceOnUse" x="0" y="0" width="24" height="24">
<path d="M24 0H0V24H24V0Z" fill="white"/>
</mask>
<g mask="url(#mask0_10750_5679)">
<path d="M22.0065 9.70492V8.29492L4.00651 1.73242L3.00001 2.43742V19.6379C2.49959 19.8148 2.07784 20.1629 1.80928 20.6207C1.54072 21.0785 1.44266 21.6166 1.53241 22.1398C1.62217 22.6628 1.89395 23.1374 2.29976 23.4796C2.70556 23.8216 3.21925 24.0092 3.75001 24.0092C4.28077 24.0092 4.79444 23.8216 5.20025 23.4796C5.60605 23.1374 5.87785 22.6628 5.96761 22.1398C6.05735 21.6166 5.95928 21.0785 5.69074 20.6207C5.42218 20.1629 5.00042 19.8148 4.50001 19.6379V16.0874L22.0065 9.70492ZM4.50001 14.4899V3.50992L19.56 8.99992L4.50001 14.4899ZM3.75001 22.4999C3.60167 22.4999 3.45667 22.456 3.33332 22.3735C3.20999 22.2911 3.11386 22.174 3.0571 22.0369C3.00034 21.8999 2.98547 21.749 3.01442 21.6037C3.04336 21.4582 3.11479 21.3245 3.21968 21.2195C3.32456 21.1147 3.4582 21.0433 3.60368 21.0143C3.74917 20.9854 3.89998 21.0002 4.03702 21.0571C4.17406 21.1138 4.29119 21.2099 4.3736 21.3332C4.45601 21.4565 4.50001 21.6016 4.50001 21.7499C4.50001 21.9488 4.42099 22.1396 4.28033 22.2803C4.13968 22.4209 3.94892 22.4999 3.75001 22.4999Z" fill="#5D5BD4"/>
</g>
</g>
</g>
<defs>
<clipPath id="clip0_10750_5679">
<rect width="24" height="24" fill="white"/>
</clipPath>
<clipPath id="clip1_10750_5679">
<rect width="24" height="24" fill="white"/>
</clipPath>
</defs>
</svg>