<svg width="25" height="24" viewBox="0 0 25 24" fill="none" xmlns="http://www.w3.org/2000/svg">
<mask id="mask0_8928_2250" style="mask-type:luminance" maskUnits="userSpaceOnUse" x="0" y="0" width="25" height="24">
<path d="M7.8125 12C7.8125 12.9665 7.029 13.75 6.0625 13.75C5.096 13.75 4.3125 12.9665 4.3125 12C4.3125 11.0335 5.096 10.25 6.0625 10.25C7.029 10.25 7.8125 11.0335 7.8125 12ZM13.8125 12C13.8125 12.9665 13.029 13.75 12.0625 13.75C11.096 13.75 10.3125 12.9665 10.3125 12C10.3125 11.0335 11.096 10.25 12.0625 10.25C13.029 10.25 13.8125 11.0335 13.8125 12ZM18.0625 13.75C19.029 13.75 19.8125 12.9665 19.8125 12C19.8125 11.0335 19.029 10.25 18.0625 10.25C17.096 10.25 16.3125 11.0335 16.3125 12C16.3125 12.9665 17.096 13.75 18.0625 13.75Z" fill="white"/>
</mask>
<g mask="url(#mask0_8928_2250)">
<rect x="0.0625" width="24" height="24" fill="#616161"/>
</g>
</svg>
