<svg width="16" height="16" viewBox="0 0 16 16" fill="none" xmlns="http://www.w3.org/2000/svg">
<path fill-rule="evenodd" clip-rule="evenodd" d="M14.0359 1.94127C13.8671 1.77254 13.6383 1.67776 13.3996 1.67776C13.161 1.67776 12.9321 1.77254 12.7633 1.94127L12.3295 2.37507L13.6246 3.67107L14.0584 3.23637C14.2271 3.06759 14.3219 2.83872 14.3219 2.60007C14.3219 2.36142 14.2271 2.13254 14.0584 1.96377L14.0359 1.94127ZM12.6706 4.62507L11.3746 3.32907L6.81341 7.89117L6.42551 9.57507L8.10851 9.18717L12.6706 4.62507ZM11.8093 0.986368C12.0182 0.777373 12.2663 0.611586 12.5393 0.498476C12.8124 0.385366 13.105 0.327148 13.4005 0.327148C13.696 0.327148 13.9887 0.385366 14.2617 0.498476C14.5347 0.611586 14.7828 0.777373 14.9917 0.986368L15.0142 1.00887C15.2232 1.21781 15.389 1.46587 15.5021 1.73889C15.6152 2.01191 15.6734 2.30454 15.6734 2.60007C15.6734 2.89559 15.6152 3.18822 15.5021 3.46124C15.389 3.73426 15.2232 3.98233 15.0142 4.19127L8.92661 10.2771C8.83727 10.3663 8.72471 10.4286 8.60171 10.4571L5.67671 11.1321C5.56516 11.1579 5.44888 11.1549 5.3388 11.1234C5.22872 11.0919 5.12847 11.0329 5.04746 10.952C4.96645 10.8711 4.90736 10.7709 4.87574 10.6609C4.84412 10.5508 4.84101 10.4345 4.86671 10.323L5.54171 7.39797C5.57015 7.27497 5.63251 7.1624 5.72171 7.07307L11.8093 0.986368ZM3.72461 2.60007C3.18755 2.60007 2.67248 2.81342 2.29272 3.19318C1.91296 3.57294 1.69961 4.088 1.69961 4.62507V12.2751C1.69961 12.8121 1.91296 13.3272 2.29272 13.707C2.67248 14.0867 3.18755 14.3001 3.72461 14.3001H11.3746C11.9117 14.3001 12.4267 14.0867 12.8065 13.707C13.1863 13.3272 13.3996 12.8121 13.3996 12.2751V8.22507C13.3996 8.04605 13.4707 7.87436 13.5973 7.74777C13.7239 7.62118 13.8956 7.55007 14.0746 7.55007C14.2536 7.55007 14.4253 7.62118 14.5519 7.74777C14.6785 7.87436 14.7496 8.04605 14.7496 8.22507V12.2751C14.7496 12.7183 14.6623 13.1571 14.4927 13.5666C14.3231 13.9761 14.0745 14.3482 13.7611 14.6616C13.4477 14.975 13.0756 15.2236 12.6662 15.3932C12.2567 15.5628 11.8178 15.6501 11.3746 15.6501H3.72461C3.2814 15.6501 2.84253 15.5628 2.43305 15.3932C2.02358 15.2236 1.65152 14.975 1.33812 14.6616C1.02473 14.3482 0.776126 13.9761 0.606516 13.5666C0.436906 13.1571 0.349609 12.7183 0.349609 12.2751V4.62507C0.349609 3.72996 0.705189 2.87152 1.33812 2.23858C1.97106 1.60565 2.8295 1.25007 3.72461 1.25007H7.77461C7.95363 1.25007 8.12532 1.32118 8.25191 1.44777C8.37849 1.57436 8.44961 1.74605 8.44961 1.92507C8.44961 2.10409 8.37849 2.27578 8.25191 2.40236C8.12532 2.52895 7.95363 2.60007 7.77461 2.60007H3.72461Z" fill="#3F0E40"/>
</svg>
