<svg width="18" height="14" viewBox="0 0 18 14" fill="none" xmlns="http://www.w3.org/2000/svg">
<path fill-rule="evenodd" clip-rule="evenodd" d="M6.24698 1.55669C5.83388 0.316487 4.07438 0.329988 3.67928 1.57649L0.0315809 13.0965C-0.0185304 13.2661 -0.000101064 13.4485 0.0829064 13.6047C0.165914 13.7608 0.306871 13.8781 0.475471 13.9314C0.644072 13.9847 0.826852 13.9697 0.984513 13.8896C1.14217 13.8096 1.26213 13.6709 1.31858 13.5033L2.30948 10.3749H7.76348L8.81018 13.5132C8.8373 13.5984 8.88108 13.6773 8.93896 13.7454C8.99685 13.8136 9.06769 13.8695 9.14737 13.91C9.22705 13.9506 9.31399 13.9748 9.40313 13.9815C9.49228 13.9882 9.58186 13.977 9.66668 13.9488C9.75149 13.9205 9.82985 13.8757 9.8972 13.8169C9.96455 13.7581 10.0196 13.6866 10.059 13.6064C10.0985 13.5261 10.1216 13.4389 10.1271 13.3497C10.1326 13.2604 10.1203 13.171 10.0909 13.0866L6.24788 1.55759L6.24698 1.55669ZM7.31348 9.02489L4.96628 1.98419L2.73698 9.02489H7.31348ZM12.8917 4.04159C13.7701 3.71805 14.7306 3.69244 15.625 3.96869C16.3128 4.181 16.9145 4.60804 17.3419 5.18722C17.7693 5.7664 18 6.46727 18.0001 7.18709V13.2999C18.0001 13.4789 17.929 13.6506 17.8024 13.7772C17.6758 13.9038 17.5041 13.9749 17.3251 13.9749C17.1461 13.9749 16.9744 13.9038 16.8478 13.7772C16.7212 13.6506 16.6501 13.4789 16.6501 13.2999V12.6294C15.8857 13.2024 15.0146 13.6171 14.0878 13.8489C13.5665 13.9792 13.0182 13.9509 12.5131 13.7676C12.0081 13.5843 11.5692 13.2544 11.2528 12.8202C9.76328 10.7727 11.2258 7.89989 13.7584 7.89989H16.6501V7.18709C16.6501 6.30149 16.0732 5.51939 15.2272 5.25839C14.6154 5.06952 13.9586 5.08723 13.3579 5.30879L13.1401 5.38889C12.8587 5.49252 12.6042 5.65811 12.3954 5.87341C12.1866 6.08871 12.029 6.34821 11.9341 6.63269L11.8909 6.76319C11.8326 6.93081 11.7106 7.06872 11.5513 7.14706C11.3921 7.22541 11.2084 7.23789 11.04 7.18181C10.8717 7.12572 10.7321 7.00558 10.6517 6.84739C10.5712 6.6892 10.5563 6.50569 10.6102 6.33659L10.6534 6.20609C10.8123 5.72961 11.0763 5.29496 11.4259 4.93431C11.7755 4.57366 12.2017 4.29624 12.673 4.12259L12.8917 4.04159ZM16.6501 9.24989H13.7584C12.3301 9.24989 11.5048 10.8708 12.3454 12.0264C12.6667 12.4683 13.2274 12.6717 13.7602 12.5394C14.5716 12.3364 15.3298 11.961 15.9832 11.4387L16.6501 10.905V9.24989Z" fill="#1D1C1D" fill-opacity="0.7"/>
</svg>
