<svg width="25" height="24" viewBox="0 0 25 24" fill="none" xmlns="http://www.w3.org/2000/svg">
<mask id="mask0_8928_2223" style="mask-type:luminance" maskUnits="userSpaceOnUse" x="0" y="0" width="25" height="24">
<path d="M17.8125 3C19.6074 3 21.0625 4.45507 21.0625 6.25V17.75C21.0625 19.5449 19.6074 21 17.8125 21H6.3125C4.51757 21 3.0625 19.5449 3.0625 17.75V6.25C3.0625 4.45507 4.51757 3 6.3125 3H17.8125ZM19.5625 8.5H4.5625V17.75C4.5625 18.7165 5.346 19.5 6.3125 19.5H17.8125C18.779 19.5 19.5625 18.7165 19.5625 17.75V8.5ZM7.8125 14.5C8.50286 14.5 9.0625 15.0596 9.0625 15.75C9.0625 16.4404 8.50286 17 7.8125 17C7.12214 17 6.5625 16.4404 6.5625 15.75C6.5625 15.0596 7.12214 14.5 7.8125 14.5ZM12.0625 14.5C12.7529 14.5 13.3125 15.0596 13.3125 15.75C13.3125 16.4404 12.7529 17 12.0625 17C11.3721 17 10.8125 16.4404 10.8125 15.75C10.8125 15.0596 11.3721 14.5 12.0625 14.5ZM7.8125 10.5C8.50286 10.5 9.0625 11.0596 9.0625 11.75C9.0625 12.4404 8.50286 13 7.8125 13C7.12214 13 6.5625 12.4404 6.5625 11.75C6.5625 11.0596 7.12214 10.5 7.8125 10.5ZM12.0625 10.5C12.7529 10.5 13.3125 11.0596 13.3125 11.75C13.3125 12.4404 12.7529 13 12.0625 13C11.3721 13 10.8125 12.4404 10.8125 11.75C10.8125 11.0596 11.3721 10.5 12.0625 10.5ZM16.3125 10.5C17.0029 10.5 17.5625 11.0596 17.5625 11.75C17.5625 12.4404 17.0029 13 16.3125 13C15.6221 13 15.0625 12.4404 15.0625 11.75C15.0625 11.0596 15.6221 10.5 16.3125 10.5ZM17.8125 4.5H6.3125C5.346 4.5 4.5625 5.2835 4.5625 6.25V7H19.5625V6.25C19.5625 5.2835 18.779 4.5 17.8125 4.5Z" fill="white"/>
</mask>
<g mask="url(#mask0_8928_2223)">
<rect x="0.0625" width="24" height="24" fill="#616161"/>
</g>
</svg>
