<svg width="25" height="24" viewBox="0 0 25 24" fill="none" xmlns="http://www.w3.org/2000/svg">
<mask id="mask0_8928_2202" style="mask-type:luminance" maskUnits="userSpaceOnUse" x="0" y="0" width="25" height="24">
<path d="M12.0626 1.99634C16.1125 1.99634 19.4193 5.19108 19.5584 9.24539L19.5626 9.49634V13.5933L20.9426 16.7493C21.0117 16.9072 21.0473 17.0777 21.0473 17.2501C21.0473 17.9405 20.4877 18.5001 19.7973 18.5001L15.0626 18.5016C15.0626 20.1585 13.7195 21.5016 12.0626 21.5016C10.4649 21.5016 9.15895 20.2527 9.0677 18.6779L9.06216 18.4993L4.33748 18.5001C4.16614 18.5001 3.99663 18.4649 3.83947 18.3966C3.20627 18.1216 2.91592 17.3853 3.19096 16.7521L4.56261 13.5943V9.49623C4.56321 5.34144 7.9147 1.99634 12.0626 1.99634ZM13.5622 18.4993L10.5626 18.5016C10.5626 19.33 11.2342 20.0016 12.0626 20.0016C12.8423 20.0016 13.4831 19.4067 13.5557 18.6461L13.5622 18.4993ZM12.0626 3.49634C8.74245 3.49634 6.06309 6.17059 6.06261 9.49634V13.906L4.71863 17.0001H19.4151L18.0626 13.9069L18.0627 9.50919L18.059 9.28399C17.9479 6.05052 15.3042 3.49634 12.0626 3.49634Z" fill="white"/>
</mask>
<g mask="url(#mask0_8928_2202)">
<rect x="0.0625" width="24" height="24" fill="#616161"/>
</g>
</svg>
