<svg width="21" height="20" viewBox="0 0 21 20" fill="none" xmlns="http://www.w3.org/2000/svg">
<path d="M10.5546 8.91012C10.5122 8.67687 10.3081 8.49999 10.0626 8.49999C9.78647 8.49999 9.56261 8.72385 9.56261 8.99999V13.5021L9.57067 13.592C9.61301 13.8253 9.81715 14.0021 10.0626 14.0021C10.3388 14.0021 10.5626 13.7783 10.5626 13.5021V8.99999L10.5546 8.91012ZM10.8613 6.74999C10.8613 6.33578 10.5255 5.99999 10.1113 5.99999C9.69711 5.99999 9.36133 6.33578 9.36133 6.74999C9.36133 7.16421 9.69711 7.49999 10.1113 7.49999C10.5255 7.49999 10.8613 7.16421 10.8613 6.74999ZM18.0625 10C18.0625 5.58172 14.4808 2 10.0625 2C5.64422 2 2.0625 5.58172 2.0625 10C2.0625 14.4183 5.64422 18 10.0625 18C14.4808 18 18.0625 14.4183 18.0625 10ZM3.0625 10C3.0625 6.13401 6.19651 3 10.0625 3C13.9285 3 17.0625 6.13401 17.0625 10C17.0625 13.866 13.9285 17 10.0625 17C6.19651 17 3.0625 13.866 3.0625 10Z" fill="#616161"/>
</svg>
