<svg width="25" height="24" viewBox="0 0 25 24" fill="none" xmlns="http://www.w3.org/2000/svg">
<g clip-path="url(#clip0_8928_2217)">
<path d="M15.8165 9C16.783 9 17.5665 9.7835 17.5665 10.75V17.499C17.5665 20.5371 15.1036 23 12.0655 23C9.02733 23 6.56443 20.5371 6.56443 17.499V10.75C6.56443 9.7835 7.34793 9 8.31443 9H15.8165ZM1.8125 9L6.19461 8.99806C5.84471 9.42095 5.61893 9.95029 5.57308 10.5302L5.56443 10.75V17.499C5.56443 18.6323 5.85446 19.698 6.36437 20.6257C5.81335 20.8663 5.20417 21 4.56374 21C2.07777 21 0.0625 18.9847 0.0625 16.4988V10.75C0.0625 9.7835 0.846002 9 1.8125 9ZM17.9363 8.99806L22.3125 9C23.279 9 24.0625 9.7835 24.0625 10.75V16.5C24.0625 18.9853 22.0478 21 19.5625 21C18.9234 21 18.3155 20.8668 17.7649 20.6266L17.8206 20.5254C18.2493 19.7119 18.5105 18.7964 18.5585 17.8248L18.5665 17.499V10.75C18.5665 10.0843 18.33 9.47382 17.9363 8.99806ZM12.0625 1C13.9955 1 15.5625 2.567 15.5625 4.5C15.5625 6.433 13.9955 8 12.0625 8C10.1295 8 8.5625 6.433 8.5625 4.5C8.5625 2.567 10.1295 1 12.0625 1ZM20.0655 2C21.7223 2 23.0655 3.34315 23.0655 5C23.0655 6.65685 21.7223 8 20.0655 8C18.4086 8 17.0655 6.65685 17.0655 5C17.0655 3.34315 18.4086 2 20.0655 2ZM4.05952 2C5.71637 2 7.05952 3.34315 7.05952 5C7.05952 6.65685 5.71637 8 4.05952 8C2.40266 8 1.05952 6.65685 1.05952 5C1.05952 3.34315 2.40266 2 4.05952 2Z" fill="#5B5FC7"/>
</g>
<defs>
<clipPath id="clip0_8928_2217">
<rect width="24" height="24" fill="white" transform="translate(0.0625)"/>
</clipPath>
</defs>
</svg>
