<svg width="14" height="14" viewBox="0 0 14 14" fill="none" xmlns="http://www.w3.org/2000/svg">
<path d="M0.200195 0.799908C0.200721 0.704037 0.22406 0.609669 0.268284 0.524606C0.312508 0.439544 0.376345 0.36623 0.454517 0.310727C0.53269 0.255225 0.622951 0.219129 0.717838 0.205423C0.812725 0.191717 0.909512 0.200795 1.0002 0.231908L13.477 6.47751C13.574 6.526 13.6556 6.60056 13.7127 6.69283C13.7697 6.7851 13.7999 6.89143 13.7999 6.99991C13.7999 7.10838 13.7697 7.21472 13.7127 7.30699C13.6556 7.39926 13.574 7.47382 13.477 7.52231L1.0002 13.7679L0.939395 13.7823C0.851325 13.8035 0.759602 13.8044 0.671124 13.785C0.582646 13.7656 0.499715 13.7264 0.428567 13.6704C0.357419 13.6143 0.299905 13.5428 0.26035 13.4614C0.220795 13.3799 0.200228 13.2905 0.200195 13.1999V9.56791C0.200195 8.59991 0.976195 7.78471 1.9682 7.76791L7.2002 7.63191C7.4162 7.62391 7.8002 7.43991 7.8002 6.99991C7.8002 6.55991 7.4002 6.36791 7.2002 6.36791L1.9682 6.23191C1.49643 6.2229 1.04701 6.02926 0.716446 5.69256C0.38588 5.35586 0.200528 4.90296 0.200195 4.43111V0.799908Z" fill="white"/>
</svg>
