<svg width="18" height="18" viewBox="0 0 18 18" fill="none" xmlns="http://www.w3.org/2000/svg">
<path fill-rule="evenodd" clip-rule="evenodd" d="M2.25039 8.9999C2.25039 7.20969 2.96155 5.4928 4.22742 4.22693C5.49329 2.96106 7.21018 2.2499 9.00039 2.2499C10.7906 2.2499 12.5075 2.96106 13.7734 4.22693C15.0392 5.4928 15.7504 7.20969 15.7504 8.9999C15.7504 10.7901 15.0392 12.507 13.7734 13.7729C12.5075 15.0387 10.7906 15.7499 9.00039 15.7499C7.21018 15.7499 5.49329 15.0387 4.22742 13.7729C2.96155 12.507 2.25039 10.7901 2.25039 8.9999ZM9.00039 0.899902C6.85214 0.899902 4.79187 1.75329 3.27283 3.27234C1.75378 4.79138 0.900391 6.85165 0.900391 8.9999C0.900391 11.1482 1.75378 13.2084 3.27283 14.7275C4.79187 16.2465 6.85214 17.0999 9.00039 17.0999C11.1486 17.0999 13.2089 16.2465 14.728 14.7275C16.247 13.2084 17.1004 11.1482 17.1004 8.9999C17.1004 6.85165 16.247 4.79138 14.728 3.27234C13.2089 1.75329 11.1486 0.899902 9.00039 0.899902ZM6.75039 8.5499C7.10843 8.5499 7.45181 8.40767 7.70498 8.1545C7.95816 7.90132 8.10039 7.55794 8.10039 7.1999C8.10039 6.84186 7.95816 6.49848 7.70498 6.24531C7.45181 5.99213 7.10843 5.8499 6.75039 5.8499C6.39235 5.8499 6.04897 5.99213 5.7958 6.24531C5.54262 6.49848 5.40039 6.84186 5.40039 7.1999C5.40039 7.55794 5.54262 7.90132 5.7958 8.1545C6.04897 8.40767 6.39235 8.5499 6.75039 8.5499ZM12.6004 7.1999C12.6004 7.37719 12.5655 7.55273 12.4976 7.71652C12.4298 7.88031 12.3303 8.02914 12.205 8.1545C12.0796 8.27986 11.9308 8.3793 11.767 8.44714C11.6032 8.51498 11.4277 8.5499 11.2504 8.5499C11.0731 8.5499 10.8976 8.51498 10.7338 8.44714C10.57 8.3793 10.4212 8.27986 10.2958 8.1545C10.1704 8.02914 10.071 7.88031 10.0032 7.71652C9.93531 7.55273 9.90039 7.37719 9.90039 7.1999C9.90039 6.84186 10.0426 6.49848 10.2958 6.24531C10.549 5.99213 10.8923 5.8499 11.2504 5.8499C11.6084 5.8499 11.9518 5.99213 12.205 6.24531C12.4582 6.49848 12.6004 6.84186 12.6004 7.1999ZM6.85389 10.5893C6.82707 10.5041 6.7836 10.425 6.72599 10.3567C6.66839 10.2884 6.59779 10.2322 6.5183 10.1914C6.43882 10.1506 6.35202 10.126 6.26294 10.119C6.17387 10.112 6.08428 10.1227 5.99939 10.1506C5.9145 10.1785 5.83599 10.2229 5.76841 10.2814C5.70084 10.3398 5.64554 10.4111 5.60572 10.4911C5.56591 10.5711 5.54237 10.6582 5.53648 10.7474C5.53059 10.8365 5.54245 10.926 5.57139 11.0105C6.11679 12.6719 7.58559 13.4999 9.02469 13.4999C10.4638 13.4999 11.9317 12.6719 12.4789 11.0105C12.5078 10.926 12.5197 10.8365 12.5138 10.7474C12.5079 10.6582 12.4844 10.5711 12.4446 10.4911C12.4047 10.4111 12.3494 10.3398 12.2819 10.2814C12.2143 10.2229 12.1358 10.1785 12.0509 10.1506C11.966 10.1227 11.8764 10.112 11.7873 10.119C11.6983 10.126 11.6115 10.1506 11.532 10.1914C11.4525 10.2322 11.3819 10.2884 11.3243 10.3567C11.2667 10.425 11.2232 10.5041 11.1964 10.5893C10.8544 11.6288 9.95439 12.1499 9.02469 12.1499C8.09499 12.1499 7.19589 11.6279 6.85389 10.5893Z" fill="#1D1C1D" fill-opacity="0.7"/>
</svg>
